<svg xmlns="http://www.w3.org/2000/svg" viewBox="0 0 180 36" fill="none">
  <!-- Z Mark -->
  <rect x="0" y="2" width="32" height="6" fill="#F5F5F5"/>
  <line x1="31" y1="8" x2="1" y2="28" stroke="#FF4500" stroke-width="4.5" stroke-linecap="butt"/>
  <rect x="0" y="28" width="32" height="6" fill="#F5F5F5"/>

  <!-- Wordmark: ZOYARE -->
  <!-- Z -->
  <path d="M50 8h14v3.5L54.5 28H64v3.5H50V28l9.5-16.5H50V8z" fill="#F5F5F5"/>
  <!-- O -->
  <path d="M70 17.75C70 12.36 73.36 8 79 8s9 4.36 9 9.75-3.36 9.75-9 9.75-9-4.36-9-9.75zm14 0C84 14.2 82 11.5 79 11.5s-5 2.7-5 6.25 2 6.25 5 6.25 5-2.7 5-6.25z" fill="#F5F5F5"/>
  <!-- Y -->
  <path d="M96 8l5.5 9.5L107 8h4l-7.5 13v10.5h-4V21L92 8h4z" fill="#F5F5F5"/>
  <!-- A -->
  <path d="M117 8h4l8 23.5h-4l-2-6h-8l-2 6h-4L117 8zm4.75 14-2.75-8.5-2.75 8.5h5.5z" fill="#F5F5F5"/>
  <!-- R -->
  <path d="M133 8h8c4.4 0 7 2.5 7 6.5 0 3-1.5 5.2-4 6.2l4.5 10.8h-4.5l-4-10h-3.5v10H133V8zm4 3.5v6.5h4c2 0 3.5-1.3 3.5-3.25S143 11.5 141 11.5h-4z" fill="#F5F5F5"/>
  <!-- E -->
  <path d="M155 8h14v3.5h-10v6h9v3.5h-9v7h10v3.5h-14V8z" fill="#F5F5F5"/>
</svg>
